<svg width="960" height="960" xmlns="http://www.w3.org/2000/svg">
 <g>
  <title>Layer 1</title>
  <path id="svg_1" d="m480,-424l116,116q11,11 28,11t28,-11q11,-11 11,-28t-11,-28l-116,-116l116,-116q11,-11 11,-28t-11,-28q-11,-11 -28,-11t-28,11l-116,116l-116,-116q-11,-11 -28,-11t-28,11q-11,11 -11,28t11,28l116,116l-116,116q-11,11 -11,28t11,28q11,11 28,11t28,-11l116,-116zm0,344q-83,0 -156,-31.5t-127,-85.5q-54,-54 -85.5,-127t-31.5,-156q0,-83 31.5,-156t85.5,-127q54,-54 127,-85.5t156,-31.5q83,0 156,31.5t127,85.5q54,54 85.5,127t31.5,156q0,83 -31.5,156t-85.5,127q-54,54 -127,85.5t-156,31.5zm0,-80q134,0 227,-93t93,-227q0,-134 -93,-227t-227,-93q-134,0 -227,93t-93,227q0,134 93,227t227,93zm0,-320z"/>
  <g id="svg_2">
   <path fill="#bc3b00" d="m480,536l116,116q11,11 28,11t28,-11q11,-11 11,-28t-11,-28l-116,-116l116,-116q11,-11 11,-28t-11,-28q-11,-11 -28,-11t-28,11l-116,116l-116,-116q-11,-11 -28,-11t-28,11q-11,11 -11,28t11,28l116,116l-116,116q-11,11 -11,28t11,28q11,11 28,11t28,-11l116,-116zm0,344q-83,0 -156,-31.5t-127,-85.5q-54,-54 -85.5,-127t-31.5,-156q0,-83 31.5,-156t85.5,-127q54,-54 127,-85.5t156,-31.5q83,0 156,31.5t127,85.5q54,54 85.5,127t31.5,156q0,83 -31.5,156t-85.5,127q-54,54 -127,85.5t-156,31.5zm0,-80q134,0 227,-93t93,-227q0,-134 -93,-227t-227,-93q-134,0 -227,93t-93,227q0,134 93,227t227,93zm0,-320z" id="svg_3"/>
  </g>
 </g>

</svg>